# xmcd
#
# Track frame offsets:
#	150
#	10220
#	20787
#	31814
#	42769
#	52886
#	63157
#	73824
#	82879
#	93075
#	103542
#	113779
#
# Disc length: 1649 seconds
#
# Revision: 0
# Processed by: cddbd v1.4PL0 Copyright (c) Steve Scherf et al.
# Submitted via: audiograbber 1.81.03
#
DISCID=8a066f0c
DTITLE=Bill Black's Combo - Out West
DYEAR=1963
DGENRE=Instrumental
TTITLE0=San Antonio Rose
TTITLE1=Tumbling Tumbleweeds
TTITLE2=Deep In The Heart Of Texas
TTITLE3=There's A Gold Mine In The Sky
TTITLE4=Yellow Rose Of Texas
TTITLE5=El Rancho Grande
TTITLE6=Home On The Range
TTITLE7=Red River Valley
TTITLE8=Down In The Valley
TTITLE9=Cool Water
TTITLE10=Ridin' Down The Canyon
TTITLE11=Cattle Call
EXTD=
EXTT0=
EXTT1=
EXTT2=
EXTT3=
EXTT4=
EXTT5=
EXTT6=
EXTT7=
EXTT8=
EXTT9=
EXTT10=
EXTT11=
PLAYORDER=
